<?xml version="1.0" encoding="UTF-8"?><svg id="a" xmlns="http://www.w3.org/2000/svg" viewBox="0 0 800 600.7"><path fill="#8A2BE2" d="M540.41,510.25c-12.28,12.6-27.54,17.98-43.85,21.03-15.1,2.83-30.4,2.46-45.67,2.82-13.51,.32-27,1.42-40.49,2.25-10.09,.62-19.9,.33-27.99-7.07-.76-.7-2.25-.81-3.41-.83-6.9-.15-12.39-3.84-14.02-9.56-1.7-5.97,.72-12.73,6.48-16.06,3.12-1.8,6.83-2.81,10.4-3.53,2.74-.56,5.69-.11,8.55-.11l1.01-1.06c-.84-.37-1.81-.59-2.51-1.14-12.9-10.03-20.17-22.94-20.27-39.56-.02-3.2-.52-6.39-1.34-9.58-.08,1.52-.17,3.04-.3,5.33-4.11-2.05-7.94-3.96-12.01-5.99-.92,6.05-1.7,12.04-2.76,17.98-3.25,18.07-7.47,35.89-14.11,53.07-2.6,6.73-7.15,11.05-14.04,13.22-10.41,3.29-20.86,5.47-31.77,2.9-4.47-1.05-8.36-2.94-11.12-6.86-.6-.85-1.97-1.29-3.08-1.64-6.54-2.06-9.19-7.03-7.16-13.6,1.98-6.41,7.92-11.18,14.99-11.35,3.09-.08,4.73-1.27,5.21-4,.81-4.61,2.02-9.29,1.88-13.9-.6-20.06-4.92-39.55-9.35-59.04-3.9-17.14-6.95-34.46-10.48-51.68-.29-1.42-1.18-2.93-2.22-3.96-3.77-3.71-7.73-7.24-11.62-10.83,.22-.31,.43-.62,.65-.92,1.99,1.03,3.98,2.06,5.97,3.09,.33-.24,.67-.47,1-.71-5.2-8.42-10.41-16.83-15.77-25.51,2.07,1.24,4.13,2.47,6.18,3.71l.92-.67c-2.58-4.41-4.89-9.02-7.83-13.18-2.48-3.51-5.21-3.16-7.7,.33-.41,.57-.74,1.19-1.71,2.78,.74-11.68,1.42-22.23,2.13-33.42-2.92,1.08-5.37,1.98-8.13,2.99l1.91-12.42c-4.24,1.94-7.9,3.61-10.94,5,4.02-7.4,8.6-14.95,12.33-22.89,6.21-13.23,8.47-27.39,8.47-41.96,0-2.55-.82-3.97-3.26-5-11.18-4.73-19.47-12.58-24.74-23.57-.46-.96-1.28-1.77-1.99-2.58-3.13-3.57-6.52-6.96-9.34-10.77-1.26-1.71-2-2.16-4.05-1.6-11.18,3.05-21.23,8.11-29.78,16,8.29-10.48,20.22-14.94,32.43-19.14-10.05-1.06-19.37,1.19-28.61,4.07,8.8-4.69,18.5-5.54,29-6.34-6.08-3.15-19.53-2.84-37.65-.14,2.94-.74,5.86-1.64,8.84-2.16,3.05-.54,6.15-.8,9.24-1.01,3.22-.23,6.45-.37,9.67-.35,3.02,.02,6.04,.31,9.2-.11-6.35-6.2-14.64-8.09-22.49-10.9l.35-1c7.6,2.7,15.2,5.4,23.36,8.3,.5-1.51,1.79-3.64,1.84-5.8,.3-13.73,3.42-26.33,14.32-36.74-5.39-6.92-10.6-13.61-16.03-20.59,6.89,5.47,11.98,12.19,16.96,18.99,3.68-2.64,7.25-5.08,10.63-7.74,.61-.48,.73-1.94,.64-2.9-1.24-12.38-2.18-24.76-.26-37.15,.32-2.06,.87-4.15,1.74-6.04,1.64-3.58,4.18-4.15,7.08-1.54,2.01,1.81,3.81,3.94,5.37,6.15,5.44,7.71,10.71,15.54,16.11,23.28,3.13,4.47,6.67,7.94,12.83,8.29,4.22,.24,8.45,1.89,12.49,3.43,2.77,1.06,4.37,.4,5.96-1.8,5.6-7.74,11.21-15.49,16.98-23.1,1.63-2.14,3.71-4.01,5.83-5.7,2.73-2.18,5.91-2.15,7.85,.77,3.32,5.02,7.16,10.08,8.83,15.71,2.9,9.8,4.3,20.05,6.37,30.1,.29,1.41,.55,2.96,1.31,4.13,8.65,13.24,11.31,27.88,10.27,43.39-.59,8.79-1.58,17.57-1.85,26.37-.27,8.6,3.17,15.44,10.44,20.64,3.94,2.82,8.08,6.48,10.08,10.72,7.75,16.47,21.28,23.53,38.25,27.33,56.1,12.57,95.84,46.41,122.15,96.66,10.18,19.45,15.28,40.6,16.74,62.47,.82,12.25,.62,24.57,.87,36.87,.06,2.98-.2,6.01,.21,8.93,1.43,10.08,9.19,17.18,21.23,18.56,6.35,.73,12.93,.63,19.28-.14,15.15-1.85,24.92-10.96,30.31-24.81,6.5-16.71,5.48-33.38-1.95-49.51-4.43-9.6-11.98-16.17-22.51-18.4-7.4-1.57-12.38-6.1-16.48-11.85-5.18-7.27-2.42-16.21,6.39-18.65,5.83-1.62,12.31-2.09,18.36-1.55,26.85,2.39,46.36,16.18,58.91,39.83,6.94,13.07,8.62,27.32,8.35,41.91-.36,18.97-4.25,36.97-15.02,52.93-13.29,19.69-32.38,30.5-55.25,35.19-11.78,2.42-23.62,3.02-35.43,.05-10.41-2.62-19.77-7.08-26.8-15.84ZM253.95,163.14c7.14-1.22,12.77-4.41,19.01-9.51-4.57-1.42-8.11-2.62-11.71-3.62-1.77-.49-2.92,.21-3.5,2.19-1.05,3.54-2.4,6.99-3.79,10.94Zm-38.11-5.72c1.64-3.4,3.36-6.75,4.83-10.2,.34-.79,.04-2.08-.42-2.9-.25-.46-1.57-.76-2.16-.52-5.05,2.06-6.27,9.46-2.26,13.62Zm31.48,5.56c1.6-3.83,3.13-7.47,4.83-11.54-5,2.07-7.32,5.7-8.91,10.31,1.5,.45,2.76,.83,4.08,1.23Zm-23.7-11.69c-1.97,3.24-3.44,5.68-4.99,8.22,4.43,.66,5.51-1.04,4.99-8.22Z"/></svg>